<svg xmlns="http://www.w3.org/2000/svg" width="45" height="44" viewBox="0 0 45 44" fill="none">
  <path d="M16.2144 31.4286C24.8931 31.4286 31.9287 24.393 31.9287 15.7143C31.9287 14.7307 31.8383 13.7682 31.6654 12.8347C30.7319 12.6618 29.7694 12.5714 28.7858 12.5714C20.1071 12.5714 13.0715 19.6069 13.0715 28.2857C13.0715 29.2693 13.1619 30.2318 13.3348 31.1653C14.2683 31.3382 15.2308 31.4286 16.2144 31.4286Z" fill="#FFF4EB"/>
  <path fill-rule="evenodd" clip-rule="evenodd" d="M13.3347 31.1653C6.03118 29.8127 0.5 23.4095 0.5 15.7143C0.5 7.03553 7.53553 0 16.2143 0C23.9095 0 30.3128 5.53118 31.6653 12.8347C30.7318 12.6618 29.7693 12.5714 28.7857 12.5714C20.107 12.5714 13.0714 19.607 13.0714 28.2857C13.0714 29.2693 13.1618 30.2318 13.3347 31.1653Z" fill="#FFF4EB"/>
  <path fill-rule="evenodd" clip-rule="evenodd" d="M16.2143 31.4285C24.8931 31.4285 31.9286 24.393 31.9286 15.7142C31.9286 14.7306 31.8382 13.7681 31.6654 12.8346C38.9689 14.1872 44.5 20.5905 44.5 28.2856C44.5 36.9644 37.4645 43.9999 28.7858 43.9999C21.0906 43.9999 14.6873 38.4687 13.3347 31.1652C14.2682 31.3381 15.2307 31.4285 16.2143 31.4285Z" fill="#FFF4EB"/>
</svg>