<svg xmlns="http://www.w3.org/2000/svg" width="44" height="44" viewBox="0 0 44 44" fill="none">
  <path fill-rule="evenodd" clip-rule="evenodd" d="M22 34.4667C28.8851 34.4667 34.4667 28.8851 34.4667 22C34.4667 15.1149 28.8851 9.53333 22 9.53333C15.1148 9.53333 9.53333 15.1149 9.53333 22C9.53333 28.8851 15.1148 34.4667 22 34.4667ZM22 44C34.1503 44 44 34.1503 44 22C44 9.84974 34.1503 0 22 0C9.84973 0 0 9.84974 0 22C0 34.1503 9.84973 44 22 44Z" fill="#FFF4EB"/>
  <path d="M22.2515 22.4817C24.5426 20.1906 28.2572 20.1906 30.5483 22.4817L41.9562 33.8897C44.2473 36.1807 44.2473 39.8953 41.9562 42.1864C39.6652 44.4775 35.9506 44.4775 33.6595 42.1864L22.2515 30.7784C19.9605 28.4873 19.9605 24.7727 22.2515 22.4817Z" fill="#FFF4EB"/>
  <path d="M25.4548 33.9817L32.7002 41.2271C36.1754 39.2889 39.0707 36.4359 41.0603 32.9938L33.8743 25.8078C32.6121 29.7472 29.4439 32.8336 25.4548 33.9817Z" fill="#FFF4EB"/>
</svg>