<svg xmlns="http://www.w3.org/2000/svg" width="869" height="887" viewBox="0 0 869 887" fill="none">
<path d="M0 165C0 134.83 0 119.745 9.37258 110.373C18.7452 101 33.8301 101 64 101H96.1422C114.599 101 123.827 101 131.363 96.5422C138.899 92.0844 143.343 83.9967 152.232 67.8215L171.268 33.1785C180.157 17.0033 184.601 8.91563 192.137 4.45782C199.673 0 208.901 0 227.358 0H804.041C834.211 0 849.296 0 858.668 9.37258C868.041 18.7452 868.041 33.8301 868.041 64V100.5C868.041 130.67 868.041 145.755 858.668 155.127C849.296 164.5 834.211 164.5 804.041 164.5H439.346C409.157 164.5 394.062 164.5 384.688 173.88C375.314 183.261 375.325 198.355 375.346 228.544L375.758 824.761C375.778 853.198 375.788 867.416 367.394 876.595C366.756 877.292 366.087 877.961 365.39 878.6C356.217 887 341.999 887 313.563 887C285.144 887 270.935 887 261.764 878.607C261.066 877.969 260.398 877.301 259.76 876.603C251.367 867.432 251.367 853.223 251.367 824.804V718.483C251.367 700.819 237.048 686.5 219.384 686.5C201.72 686.5 187.401 700.819 187.401 718.483V859.515C187.401 874.694 175.095 887 159.915 887C144.736 887 132.43 874.694 132.43 859.515V661.481C132.43 657.784 132.43 655.935 132.277 654.378C130.787 639.174 118.756 627.143 103.552 625.653C101.994 625.5 100.146 625.5 96.449 625.5C92.752 625.5 90.9034 625.5 89.3463 625.653C74.1416 627.143 62.111 639.174 60.6206 654.378C60.468 655.935 60.468 657.784 60.468 661.481V856.766C60.468 873.464 46.9318 887 30.234 887C13.5362 887 0 873.464 0 856.766V165Z" fill="#8E623C"/>
</svg>