<svg xmlns="http://www.w3.org/2000/svg" width="222" height="222" viewBox="0 0 222 222" fill="none">
  <path d="M107.173 1.58513C109.623 0.570186 112.377 0.570187 114.827 1.58513L185.662 30.926C188.112 31.941 190.059 33.8877 191.074 36.338L220.415 107.173C221.43 109.623 221.43 112.377 220.415 114.827L191.074 185.662C190.059 188.112 188.112 190.059 185.662 191.074L114.827 220.415C112.377 221.43 109.623 221.43 107.173 220.415L36.338 191.074C33.8877 190.059 31.941 188.112 30.926 185.662L1.58513 114.827C0.570186 112.377 0.570187 109.623 1.58513 107.173L30.926 36.338C31.941 33.8877 33.8877 31.941 36.338 30.926L107.173 1.58513Z" fill="#E8D0BC"/>
</svg>