<svg width="320" height="80" viewBox="0 0 320 80" fill="none" xmlns="http://www.w3.org/2000/svg">
<path d="M19 32C19 16.9151 19 9.37258 23.6863 4.68629C28.3726 0 35.9151 0 51 0H283.821C284.916 0 285.463 0 285.926 0.0268073C294.034 0.496736 300.503 6.96637 300.973 15.0742C301 15.5367 301 16.0843 301 17.1794C301 17.8645 301 18.207 301.013 18.5258C301.23 23.9812 304.215 28.9491 308.929 31.7031C309.205 31.8641 309.507 32.025 310.112 32.3467L314.185 34.5132C317.363 36.2035 318.951 37.0486 319.525 38.1426C320.135 39.3058 320.135 40.6942 319.525 41.8574C318.951 42.9514 317.363 43.7965 314.185 45.4868L310.112 47.6533C309.507 47.975 309.205 48.1359 308.929 48.2968C304.215 51.0509 301.23 56.0188 301.013 61.4742C301 61.793 301 62.1355 301 62.8206C301 63.9157 301 64.4633 300.973 64.9258C300.503 73.0336 294.034 79.5033 285.926 79.9732C285.463 80 284.916 80 283.821 80H51.0001C35.9151 80 28.3726 80 23.6863 75.3137C19 70.6274 19 63.0849 19 48V32Z" fill="#DB9F6A"/>
<path d="M9.88831 47.6533L5.81524 45.4868C2.63752 43.7965 1.04867 42.9514 0.475086 41.8574C-0.134762 40.6942 -0.134762 39.3058 0.475086 38.1426C1.04867 37.0486 2.63752 36.2035 5.81524 34.5132L9.8883 32.3467C10.4928 32.0251 10.7956 31.8641 11.071 31.7031C15.7852 28.9491 18.7697 23.9812 18.9873 18.5258C19 18.207 19 17.8645 19 17.1794C19 16.0843 19 15.5367 19.0269 15.0742C19.4968 6.96637 25.9664 0.496736 34.0742 0.0268073C34.5368 0 35.0843 0 36.1795 0H73.5C88.585 0 96.1275 0 100.814 4.68629C105.5 9.37258 105.5 16.9151 105.5 32V48C105.5 63.0849 105.5 70.6274 100.814 75.3137C96.1275 80 88.585 80 73.5 80H36.1795C35.0843 80 34.5368 80 34.0742 79.9732C25.9664 79.5033 19.4968 73.0336 19.0269 64.9258C19 64.4633 19 63.9157 19 62.8206C19 62.1355 19 61.793 18.9873 61.4742C18.7697 56.0188 15.7852 51.0509 11.071 48.2968C10.7956 48.1359 10.4931 47.975 9.88831 47.6533Z" fill="#DB9F6A"/>
</svg>
